<svg width="178" height="208" viewBox="0 0 178 208" fill="none" xmlns="http://www.w3.org/2000/svg">
<path fill-rule="evenodd" clip-rule="evenodd" d="M71.5012 0.503545C71.5012 0.782461 71.7294 1.00732 72.0083 1.00469C72.3389 1.00156 72.6699 1 73.0012 1C129.887 1 176.001 47.1147 176.001 104C176.001 160.885 129.887 207 73.0012 207C45.3718 207 20.2827 196.122 1.78402 178.412C1.58696 178.224 1.27512 178.226 1.08222 178.419C0.884628 178.617 0.887249 178.938 1.08909 179.131C19.767 197.014 45.1011 208 73.0012 208C130.439 208 177.001 161.438 177.001 104C177.001 46.5624 130.439 0 73.0012 0C72.6651 0 72.3294 0.00159406 71.9941 0.00477503C71.7208 0.00736819 71.5012 0.230178 71.5012 0.503545Z" fill="#DD4CAC"/>
</svg>
